<svg width="126" height="44" viewBox="0 0 126 44" fill="none" xmlns="http://www.w3.org/2000/svg">
<path d="M25.7418 21.1761L24.3948 34.7461C24.2285 36.4258 23.9292 37.7977 23.4968 38.8621C23.0644 39.943 22.5239 40.7995 21.8754 41.4314C21.2268 42.0633 20.4868 42.4957 19.6553 42.7285C18.8404 42.978 17.9673 43.1027 17.036 43.1027C16.4374 43.1027 15.8969 43.0528 15.4146 42.953C14.9323 42.8699 14.4917 42.7452 14.0925 42.5789C13.71 42.4292 13.3525 42.2546 13.0199 42.055C12.6873 41.8555 12.363 41.6559 12.047 41.4563L13.1446 37.7645C13.1945 37.7977 13.3026 37.831 13.4689 37.8643C13.6352 37.9142 13.8098 37.964 13.9928 38.0139C14.1923 38.0638 14.3836 38.1054 14.5665 38.1387C14.766 38.1719 14.9157 38.1886 15.0155 38.1886C15.3315 38.1886 15.6225 38.1137 15.8886 37.964C16.1547 37.831 16.3875 37.5649 16.587 37.1658C16.8032 36.7833 16.9945 36.2345 17.1608 35.5194C17.3271 34.8044 17.4684 33.8731 17.5848 32.7256C16.5538 33.0249 15.5227 33.2328 14.4917 33.3492C13.4772 33.4823 12.521 33.5488 11.623 33.5488C9.79368 33.5488 8.13069 33.3243 6.63399 32.8753C5.13729 32.4096 3.89004 31.628 2.89224 30.5304C1.89444 29.4162 1.2043 28.0942 0.821809 26.5642C0.455949 25.0176 0.273019 23.2798 0.273019 21.3507C0.273019 19.7542 0.364484 18.1661 0.547414 16.5862C0.730344 15.0064 1.038 13.5097 1.47038 12.0961C1.91939 10.6659 2.50144 9.34385 3.21653 8.12986C3.94825 6.91587 4.85458 5.86819 5.93553 4.9868C7.01648 4.08878 8.28867 3.39032 9.75211 2.89142C11.2155 2.37589 12.9118 2.11812 14.8409 2.11812C16.454 2.11812 17.9008 2.25948 19.1813 2.54219C20.4784 2.8249 21.576 3.29885 22.474 3.96405C23.3887 4.61262 24.0872 5.46907 24.5694 6.53338C25.0517 7.58107 25.2928 8.87821 25.2928 10.4248C25.2928 11.0567 25.1764 11.6471 24.9436 12.1959C24.7108 12.7281 24.3865 13.1937 23.9707 13.5928C23.5716 13.9919 23.0977 14.3079 22.5489 14.5407C22.0001 14.7735 21.418 14.89 20.8027 14.89C20.1874 14.89 19.6054 14.7735 19.0566 14.5407C18.5244 14.3079 18.0505 13.9919 17.6347 13.5928C17.2356 13.1937 16.9196 12.7281 16.6868 12.1959C16.454 11.6471 16.3376 11.0567 16.3376 10.4248C16.3376 9.9259 16.4124 9.45195 16.5621 9.00294C16.7118 8.55393 16.9279 8.13818 17.2107 7.75569C16.7284 7.35657 16.1463 7.15701 15.4645 7.15701C14.7162 7.15701 14.0343 7.38151 13.419 7.83052C12.8203 8.2629 12.2799 8.83664 11.7976 9.55173C11.332 10.2668 10.9245 11.09 10.5753 12.0213C10.2427 12.9526 9.9683 13.9088 9.75211 14.89C9.53592 15.8545 9.36962 16.819 9.25321 17.7836C9.15343 18.7315 9.10354 19.5879 9.10354 20.3529C9.10354 20.4527 9.11185 20.7021 9.12848 21.1012C9.14511 21.4837 9.18669 21.9411 9.25321 22.4732C9.33636 23.0054 9.4694 23.5625 9.65233 24.1445C9.83526 24.7266 10.0847 25.2671 10.4007 25.766C10.7333 26.2482 11.149 26.6557 11.6479 26.9883C12.1468 27.3042 12.7621 27.4622 13.4939 27.4622C14.6912 27.4622 15.6641 27.2377 16.4124 26.7887C17.1774 26.3397 17.8176 25.7493 18.3332 25.0176L18.6824 21.5253L25.7418 21.1761ZM37.9914 11.6222C39.3051 11.6222 40.5191 11.697 41.6333 11.8467C42.7642 11.9797 43.7537 12.279 44.6018 12.7447C45.4499 13.1937 46.1401 13.8672 46.6722 14.7652C47.2044 15.6466 47.537 16.8357 47.67 18.3324C48.0858 18.3656 48.568 18.3573 49.1168 18.3074C49.6823 18.2575 50.256 18.191 50.838 18.1079C51.4201 18.0081 51.9689 17.9 52.4844 17.7836C53.0166 17.6672 53.4489 17.5507 53.7815 17.4343L53.0332 22.099C52.1019 22.4649 51.1706 22.731 50.2394 22.8973C49.3081 23.0636 48.4184 23.1634 47.5702 23.1966C47.4871 23.945 47.3457 24.7266 47.1462 25.5415C46.9633 26.3397 46.6889 27.1213 46.323 27.8863C45.9738 28.6346 45.5164 29.3497 44.951 30.0315C44.4022 30.7134 43.7204 31.3121 42.9055 31.8276C42.0907 32.3431 41.1178 32.7506 39.987 33.0499C38.8728 33.3492 37.5839 33.4989 36.1205 33.4989C34.6404 33.4989 33.3433 33.3908 32.2291 33.1746C31.1149 32.9751 30.1836 32.5843 29.4353 32.0022C28.6869 31.4202 28.1215 30.6053 27.739 29.5576C27.3565 28.4933 27.1653 27.113 27.1653 25.4167C27.1653 24.3025 27.2318 23.1883 27.3648 22.0741C27.4979 20.9599 27.7224 19.8956 28.0383 18.8811C28.3543 17.8501 28.7784 16.8939 29.3105 16.0125C29.8593 15.1311 30.5328 14.3661 31.3311 13.7175C32.1293 13.069 33.0772 12.5618 34.1748 12.1959C35.2724 11.8134 36.5446 11.6222 37.9914 11.6222ZM40.3362 21.226C39.5712 20.7437 38.8728 20.2199 38.2408 19.6544C37.6255 19.089 37.0934 18.507 36.6443 17.9083C36.2619 18.3074 35.9376 18.798 35.6715 19.38C35.4054 19.9455 35.1809 20.5441 34.998 21.1761C34.8317 21.7914 34.707 22.3984 34.6238 22.9971C34.5407 23.5791 34.4991 24.078 34.4991 24.4938C34.4991 24.6767 34.4991 24.9511 34.4991 25.3169C34.5157 25.6662 34.5822 26.032 34.6986 26.4145C34.815 26.7804 35.0063 27.1047 35.2724 27.3874C35.5385 27.6535 35.9209 27.7865 36.4198 27.7865C37.1682 27.7865 37.7918 27.562 38.2907 27.113C38.7896 26.6473 39.1804 26.0819 39.4631 25.4167C39.7625 24.7515 39.9703 24.0364 40.0868 23.2715C40.2198 22.5065 40.3029 21.8247 40.3362 21.226ZM81.8057 7.4314C81.34 7.64759 80.7829 7.82221 80.1343 7.95525C79.4858 8.08829 78.7873 8.18807 78.039 8.25459C77.3073 8.32111 76.5423 8.36268 75.744 8.37931C74.9624 8.39594 74.1974 8.39594 73.4491 8.37931C72.7174 8.34605 72.0272 8.31279 71.3787 8.27953C70.7301 8.24627 70.173 8.2047 69.7074 8.15481L68.8592 16.2869H76.6421L75.9935 21.9993H68.2855L67.1879 33H59.0558L61.7 7.4314C61.1512 7.36488 60.6274 7.38983 60.1285 7.50624C59.6462 7.60602 59.1972 7.78063 58.7815 8.03008C58.3657 8.2629 57.9832 8.54561 57.634 8.87821C57.2848 9.21081 56.9771 9.56836 56.711 9.95085C57.2931 10.3001 57.7421 10.774 58.058 11.3727C58.3906 11.9714 58.5569 12.5701 58.5569 13.1687C58.5569 13.7009 58.4489 14.2081 58.2327 14.6904C58.0165 15.1727 57.7171 15.5967 57.3346 15.9626C56.9688 16.3284 56.5447 16.6195 56.0625 16.8357C55.5802 17.0352 55.0647 17.135 54.5159 17.135C53.9006 17.135 53.3518 17.0103 52.8695 16.7608C52.3872 16.5114 51.9798 16.1788 51.6472 15.763C51.3146 15.3306 51.0568 14.8484 50.8739 14.3162C50.7076 13.7841 50.6244 13.227 50.6244 12.6449C50.6244 11.0484 50.8988 9.54341 51.4476 8.12986C51.9964 6.71631 52.9111 5.4857 54.1916 4.43801C55.4721 3.39032 57.16 2.56713 59.2554 1.96845C61.3508 1.35315 63.9367 1.04549 67.0133 1.04549C67.4789 1.04549 68.1109 1.06212 68.9091 1.09538C69.7073 1.12864 70.5804 1.1619 71.5283 1.19516C72.4929 1.22842 73.499 1.24505 74.5467 1.24505C75.5944 1.24505 76.6088 1.22011 77.59 1.17022C78.5878 1.12033 79.519 1.02886 80.3838 0.89582C81.2486 0.74615 81.972 0.54659 82.554 0.297141L81.8057 7.4314ZM91.3487 27.5869C91.066 28.4018 90.6253 29.1585 90.0266 29.8569C89.4445 30.5554 88.771 31.1707 88.006 31.7029C87.2577 32.2184 86.4511 32.6258 85.5864 32.9252C84.7383 33.2245 83.9068 33.3742 83.0919 33.3742C82.0442 33.3742 81.1545 33.2162 80.4228 32.9002C79.6911 32.5676 79.0841 32.1103 78.6018 31.5282C78.1362 30.9462 77.7952 30.2394 77.579 29.4079C77.3629 28.5764 77.2548 27.6618 77.2548 26.664C77.2548 26.2316 77.2797 25.7992 77.3296 25.3668L79.5497 2.94131L87.4074 2.29274C87.2244 3.989 87.0332 5.80998 86.8336 7.75569C86.6341 9.68477 86.4345 11.6388 86.235 13.6178C86.0354 15.5801 85.8358 17.5341 85.6363 19.4798C85.4367 21.4089 85.2372 23.2216 85.0376 24.9178C84.9877 25.1673 84.9628 25.3752 84.9628 25.5415C84.9628 25.7909 84.9794 26.0404 85.0127 26.2898C85.0625 26.5226 85.1374 26.7305 85.2372 26.9134C85.3536 27.0797 85.5032 27.2211 85.6862 27.3375C85.8857 27.4373 86.1269 27.4872 86.4096 27.4872C86.7422 27.4872 87.0665 27.4206 87.3824 27.2876C87.715 27.1546 88.0144 26.9799 88.2804 26.7638C88.5632 26.5476 88.796 26.3147 88.9789 26.0653C89.1785 25.7992 89.3198 25.5415 89.403 25.292L91.3487 27.5869ZM94.024 36.3177C94.2236 36.5006 94.4897 36.6586 94.8223 36.7916C95.1549 36.9247 95.4958 37.0245 95.845 37.091C96.1942 37.1741 96.5185 37.2323 96.8179 37.2656C97.1172 37.2989 97.3251 37.3155 97.4415 37.3155C98.0402 37.3155 98.5058 37.1575 98.8384 36.8415C99.1876 36.5422 99.4537 36.1348 99.6366 35.6192C99.8362 35.1037 99.9776 34.505 100.061 33.8232C100.16 33.1414 100.26 32.4263 100.36 31.6779L100.435 31.0044C100.185 31.337 99.9194 31.653 99.6366 31.9523C99.3706 32.235 99.038 32.4845 98.6388 32.7007C98.2397 32.9002 97.7575 33.0582 97.192 33.1746C96.6432 33.3077 95.9697 33.3742 95.1715 33.3742C94.0905 33.3742 93.1759 33.1996 92.4275 32.8503C91.6958 32.5011 91.0971 32.0188 90.6315 31.4035C90.1659 30.7716 89.825 30.0315 89.6088 29.1834C89.4092 28.3187 89.3094 27.3791 89.3094 26.3646C89.3094 25.8824 89.3344 25.4001 89.3843 24.9178L90.7562 11.5723L98.3894 11.9215L97.1172 24.4938C97.1006 24.5935 97.0839 24.6933 97.0673 24.7931C97.0673 24.8763 97.0673 24.9677 97.0673 25.0675C97.0673 25.2837 97.1089 25.5331 97.192 25.8158C97.2918 26.0986 97.4249 26.3646 97.5912 26.6141C97.7575 26.8635 97.9487 27.0714 98.1649 27.2377C98.3977 27.404 98.6388 27.4872 98.8883 27.4872C99.2542 27.4872 99.6366 27.3874 100.036 27.1878C100.435 26.9883 100.726 26.6806 100.909 26.2649L102.406 11.5224L110.188 11.8966L108.243 31.0792C108.193 31.4118 108.143 31.7943 108.093 32.2267C108.043 32.6591 107.977 33.1164 107.893 33.5987C107.81 34.0809 107.702 34.5798 107.569 35.0954C107.436 35.6275 107.27 36.1514 107.07 36.6669C106.455 38.596 105.432 40.0262 104.002 40.9574C102.588 41.9054 100.851 42.3793 98.7885 42.3793C97.5413 42.3793 96.4686 42.1798 95.5706 41.7806C94.6726 41.3981 93.7995 40.7828 92.9514 39.9347L94.024 36.3177ZM125.099 1.29494L121.732 23.7953H116.119L116.693 1.89362L125.099 1.29494ZM122.879 29.7821C122.879 30.8298 122.505 31.6696 121.757 32.3015C121.008 32.9335 119.977 33.2494 118.663 33.2494C117.366 33.2494 116.335 32.9335 115.57 32.3015C114.822 31.6696 114.448 30.8298 114.448 29.7821C114.448 28.751 114.822 27.9195 115.57 27.2876C116.335 26.6557 117.366 26.3397 118.663 26.3397C119.977 26.3397 121.008 26.6557 121.757 27.2876C122.505 27.9195 122.879 28.751 122.879 29.7821Z" fill="#FF7F37"/>
</svg>
