<svg width="33" height="32" viewBox="0 0 33 32" fill="none" xmlns="http://www.w3.org/2000/svg">
<path fill-rule="evenodd" clip-rule="evenodd" d="M16.5 21C13.0953 21 10.1137 18.984 8.6755 16C10.1137 13.016 13.0953 11 16.5 11C19.9047 11 22.8863 13.016 24.3245 16C22.8863 18.984 19.9047 21 16.5 21ZM16.5 9C21.0502 9 24.9389 11.9026 26.5 16C24.9389 20.0974 21.0502 23 16.5 23C11.9498 23 8.06109 20.0974 6.5 16C8.06109 11.9026 11.9498 9 16.5 9ZM16.5 19C18.1569 19 19.5 17.6569 19.5 16C19.5 14.3431 18.1569 13 16.5 13C14.8431 13 13.5 14.3431 13.5 16C13.5 17.6569 14.8431 19 16.5 19Z" fill="#6E7491"/>
</svg>
