<svg width="18" height="21" viewBox="0 0 18 21" fill="none" xmlns="http://www.w3.org/2000/svg">
<path d="M3 0.777778C3 0.348223 3.58579 0 4 0C4.41421 0 5 0.348223 5 0.777778V2.33333H3V0.777778Z" fill="#EB5757"/>
<path d="M13 0.777778C13 0.348223 13.5858 0 14 0C14.4142 0 15 0.348223 15 0.777778V2.33333H13V0.777778Z" fill="#EB5757"/>
<path fill-rule="evenodd" clip-rule="evenodd" d="M3 2.33333H0.75C0.335786 2.33333 0 2.68156 0 3.11111V20.2222C0 20.6518 0.335787 21 0.75 21H17.25C17.6642 21 18 20.6518 18 20.2222V3.11111C18 2.68156 17.6642 2.33333 17.25 2.33333H15H13H5H3ZM16.5 7H1.5V19.4444H16.5V7Z" fill="#EB5757"/>
</svg>
