<svg fill="none" xmlns="http://www.w3.org/2000/svg" viewBox="0 0 1024 245"><path d="M1024 0H32.2v203.2H1024V0z" fill="#3C4043"/><path d="M184.6 147.3a25.4 25.4 0 100-50.8 25.4 25.4 0 000 50.8z" fill="#202124"/><path d="M459.3 39.7L288.5 79.9l171.7-37" stroke="#5F6368" stroke-miterlimit="10"/><path d="M252.4 163.7a57.1 57.1 0 100-114.2 57.1 57.1 0 000 114.2z" fill="#202124"/><path d="M321.2 134.2a26.2 26.2 0 100-52.4 26.2 26.2 0 000 52.4z" fill="#202124"/><path d="M357.2 127.2a19.2 19.2 0 100-38.4 19.2 19.2 0 000 38.4z" fill="#202124"/><path d="M395.5 123.2a25.4 25.4 0 100-50.8 25.4 25.4 0 000 50.8z" fill="#202124"/><path d="M423.1 104a12 12 0 100-24.1 12 12 0 000 24z" fill="#202124"/><path d="M442.4 118.4a16.2 16.2 0 100-32.5 16.2 16.2 0 000 32.5z" fill="#202124"/><path d="M462.8 120.8a12.1 12.1 0 100-24.3 12.1 12.1 0 000 24.3z" fill="#202124"/><path d="M493.3 132.4a22.8 22.8 0 100-45.5 22.8 22.8 0 000 45.5zm68.2-20.1a25.5 25.5 0 100-50.9 25.5 25.5 0 000 51z" fill="#202124"/><path d="M590.5 90.4a29 29 0 100-58 29 29 0 000 58z" fill="#202124"/><path d="M621.4 66a9.7 9.7 0 100-19.4 9.7 9.7 0 000 19.4z" fill="#202124"/><path d="M640.8 67.3a13.4 13.4 0 100-26.8 13.4 13.4 0 000 26.8zM681 80.4a16.6 16.6 0 100-33.2 16.6 16.6 0 000 33.2z" fill="#202124"/><path d="M711 85.8a16.6 16.6 0 100-33.2 16.6 16.6 0 000 33.2z" fill="#202124"/><path d="M749.2 101.5a30 30 0 100-60 30 30 0 000 60z" fill="#202124"/><path d="M775.1 98.6a9.6 9.6 0 100-19.3 9.6 9.6 0 000 19.3z" fill="#202124"/><path d="M788.9 111.8a11.8 11.8 0 100-23.5 11.8 11.8 0 000 23.5z" fill="#202124"/><path d="M183.3 95.9a28.9 28.9 0 0122.3 10.5" stroke="#5F6368" stroke-linecap="round" stroke-linejoin="round"/><path d="M321.1 81a26.9 26.9 0 0125 17.3m-42.3-17.8c1.8 3.7 3.3 7.5 4.3 11.4m106.1-12c1.7 1.8 3.1 3.8 4.3 6M369.7 96a24 24 0 011.3-7m63-3.2c1 1.9 1.6 4 1.6 6.1m22.4 3.6c.5 1.5.9 3.1 1 4.7m12.3 1.8c.7-2.1 1.8-4 3-6m86.2-35c3.5-.1 7 .4 10.4 1.5m42.8-12.8a10.5 10.5 0 017.8-3.7m5.5 7.9a14 14 0 015.6-11.4m60 8.7a17 17 0 015.5 12.5m20.5 7.8c.1-7.7 3-15.1 8.2-20.8m53 20.8a31 31 0 01-2.5 12m7.9 5.2c0 1.8-.3 3.5-1.1 5" stroke="#3C4043" stroke-miterlimit="10"/><path d="M240.8 97.8l72 19.7 7.7-7.8-3.3-11.9 28.3 12.5-57 19.9 48.8 32.5H362l-3.1-12.4-12.6-6.4-5.3-8 40.2 17.2-2-7.9-4.8-1-6.3-8 37.3 20.3 24.3 6.2-104 31.6-12.5-32.5-55.7-14.5-13.3 3.5 23.3-36.8-8.5 4.4-4.3-10.4h-5.1l-8.7-10.2zm406.7-50.6L736.4 81 874 116l-12.6 21.8-54-17-82.9-10 6.6-24-59.4-9.3 4.7-13.7-17-1.4-11.9-15.2z" fill="#80868B"/><path d="M185.8 127.2l55-29.4 8.7 10.2h5l4.4 10.4 8.5-4.4-23.3 36.8 13.3-3.5 55.7 14.5 12.6 32.5-81.8 19.4-58-86.5zm131.4-29.4L293 112.1l19.7 5.4 7.8-7.8-3.3-11.9zm-28.7 32.4l57-19.9 64-22.1 34.4 25.1-14.3 3.7 74.9 21.7-106.7 13.8L368 136l6.3 8 4.8 1.1 2 8L341 136l5.3 7.9 12.6 6.4 3.1 12.3h-24.6l-48.8-32.4z" fill="#5F6368"/><path d="M409.5 88.2l34.4 25.1-14.3 3.7 85 25.8-43.4-22L485 115l-53.3-18.5-22.2-8.3z" fill="#80868B"/><path d="M471.2 120.8l176.3-73.6 12 15.2 16.9 1.4-4.7 13.7L731 87l-6.6 23.9 82.9 10 54 17-7.3 29.6-103.5-13.7H553.3l73.6-31.6-112.3 20.7-43.4-22z" fill="#5F6368"/><path d="M979.3.3L964 60.8l-15-28.4-20.6 74.9-20.6-35.8-12.6 28.6L881 7.6l-17.1 121-21.7-71.1-18.2 75-19.5-32.3-17 49.4c-17-3-34 1.2-54.3 1.2-20.6 0-41.6-7-54-5.9-12.6 1-29.8 7-57.9 4.1-28-2.8-64 1.8-64 1.8l67-27.5c-51 6.7-100.3 9.2-100.3 9.2-25 0-53.6 9.2-53.6 9.2-53.5 2.8-72.7 10.8-72.7 10.8l7.5 4 10.5 2.7-23.6 6-23.9 3c-10 1.7-26.3 9.4-37.2 15.1-1.2-2.3-2.4-2.6-2.4-2.6-.7.9-1.2 1.9-1.4 3-.5-2-1.4-4-2.6-5.7-1.8 1.6-3 3.8-3.6 6.2a8.7 8.7 0 00-1.4-4.1 14 14 0 00-4.3 4.6c-.2-2.4-1.2-4.6-2.9-6.4-2.8 2-2.8 4.3-2.8 4.8a9 9 0 00-1.8-5.5c-4 2.6-5.6 10.1-5.6 10.1 0-1.7-.3-3.4-1.2-4.8-4 .9-5.1 3.2-5.1 3.2-2.1-7.3-6.6-9.2-6.6-9.2-2 6.8.5 11.3.5 11.3-2.3-.1-4.7.4-6.8 1.5a9 9 0 001.4-6 6.8 6.8 0 00-4.1 2.8c.6-2 .5-4.3-.4-6.4-1.7.7-3.2 2-4.3 3.5 1-4.2-.6-9.6-.6-9.6-3.4 2.3-4.5 7.8-4.5 7.8a3 3 0 00-1.2-1.7 4.6 4.6 0 00-1.4 3.9 59.8 59.8 0 00-21.7-13.2 13 13 0 002.3-5.9 8 8 0 00-5.4 1.8c1.1-3 1.1-6.1 0-9-2.7.5-5.4 5.4-5.4 5.4.3-3.7-.8-7.3-3-10.2-7 5-10 10.8-11 14.2L165.3 60.8l-27.3 53-15.4-74.1-9.7 66.7L79.6 0h-5.3l-8.6 27.7L55.3.3H0V245h1024V.2h-44.7zM776 182.9c-25.2-6.2-70.9 2-70.9 2-27.8-2.5-49 4.5-49 4.5a47.2 47.2 0 00-25-9.5c60.4-23 130.3-20.7 152.5-19.2l-7.6 22.2z" fill="#202124"/><path d="M340.9 136l-15.2 14.2 16.8-11.8-1.6-2.4zm27.1.1l-8 8 1.6.7 8.7-5.8-2.3-2.9zm61.6-19.1l-20 19.1 20-10-1.8-5.3 5-2.8-3.2-1z" fill="#3C4043"/><path d="M333.2 184l1.7-9.6 2 9.6 1.9-15.5 2.5 12 2.2-12.3 2.7 10.6m7.8-5l.8-5.1 1.1 5.1H354zm7.3-3.2l1-5.5 2.4 6.2 1.2-5.8 2.3 5.1m16.1-4.1l.3-2.7a.4.4 0 01.4-.3.4.4 0 01.4.3l.5 2.7 3.1-.5.5-3.7.9 4.2 4-1 .7-6 .6 5.6.8-.4.2-2.8a.2.2 0 01.2-.1h.1v.1l.6 3 1.5-.7.2-2.6.8 2.6M776.8 184s-.2-5.5-5-12.7c0 0-2 2.9-2 8.5-1.5-2-3.3-3.5-5.5-4.6 0 0-1.6 1.9 1.6 9.7l10.9-.8zm-21.6.5a27 27 0 00-.5-6.4 7 7 0 00-4.3 3.8 12 12 0 000-7.6s-5 3.4-6 8.5c-.7-1.8-1.7-3.4-3-4.7a14 14 0 00-1.9 9.7c1 5.4 15.7-3.3 15.7-3.3zm-30 5.1c.4-2 .5-4.2.3-6.3-1.1.4-2.1 1-3 1.8.2-2.3-.1-4.6-.8-6.8a8 8 0 00-5.2 3.6s.5-1-1.1-4.6a9 9 0 00-3.4 7.6l13.2 4.7zm-17.9-4.5s.9-4.7-1.2-8.4c-1.3.8-2.3 2-2.8 3.4 0 0 .2-1.4-1.2-4.3a9.6 9.6 0 00-2.8 6.1s.2-1.2-3.3-3.3a6 6 0 00-.2 3.5 5 5 0 00-3.5-1.1c0 2 .6 4.2 1.6 6l13.4-1.9z" fill="#202124"/><path d="M722.7 192.4s6.8-6.1 10.6-18.1" stroke="#202124" stroke-miterlimit="10"/><path d="M733.3 175.5a1.3 1.3 0 100-2.5 1.3 1.3 0 000 2.5zm-50-1.5a1.3 1.3 0 100-2.5 1.3 1.3 0 000 2.6z" fill="#202124"/><path d="M731.4 179.4l4.1-1.3m-6.7 6.2l-1.9-3.9m-41.5 5.1c-.1-4.3-.8-8.6-2.1-12.7m1.5 4.6l2.3-2.7m-2.1 6l-3.4-2.5" stroke="#202124" stroke-miterlimit="10"/><path d="M788.3 149.7l-2.6-8.3-2.5 10.5-2.5-8.5-2 8.8-8 .4-3.7-14.8-2.8 15.2-2-10-1.6 10-5.3-1-2.5-11.7-1.6 6.7-1-8.9v-.2a.4.4 0 00-.7.2l-2.2 9.7-1-8.3L743 152l-6.4-1.9-1.9-16-2.2 16v8l49.3-1.5 7.4-3.7-.9-3.3zm-92.6-2.8l-1.6-10.6-2.6 11.3-8.4-1.2-2.2-9.6-.1-.2a.4.4 0 00-.5 0l-.1.2-2.2 10.3-5.6-1.1-.8-15.5-2 17.1-1-10.8a.3.3 0 00-.6 0l-1.3 11.7-5-.6-2-10-.9 11.5h-7.3l-1.2-8.8-1.5 9.7-1.5-5.6a.5.5 0 00-1 0l-1.3 5.8-3.3-13-2.2 13h-5.8l-.8-11-1.2 11.5-2-1.2-.4-7.1a.3.3 0 00-.2-.2.3.3 0 00-.3.2l-1.7 8.3-1.6-14.2-3 13.3-4.5-1.3-1-10.1-2 7.3-1.6-10.3-1.7 9.6-1.6-6.9-2.9 11-4.3-.4-1.2-6.4a.6.6 0 00-.6-.5.6.6 0 00-.6.4l-2 6.8-13-.4-1.3-6.7-2.2 7.1-1-5.5-1.4 5.2h-4l-1-4.6-.7 5.2h-2.7l-.9-4.4-1.1 5 82.3 6.2L697 155l-1.2-8.1z" fill="#202124"/><path d="M593.4 142v8m2.1-25.5v8m-2.6-6.5v8m5.1-9.5v8m5.4-7.5v3.7m2.2-5.1v3.7m2.9-3.1v3.7m-23.3-1.5v7.9m-2.2-6.8v7.9m-7.6-9.8v8m-2.1-6.1v7.9m-2.7-8.4v8m-9.4-8.2v8m-3.2-6.3v7.9m-3-7.1v8m-3.2-8v8m-3.2-9.8v7.9m-2.1-6.1v8m-2.5-8.8v7.9m-10-7.4v8m-1.7-6.2v8m-2-9.2v8m-2.5-6.6v8m-2.5-7v8m-3.3-9.4v8m-2.7-9v8m-4.8-6.2v8m-2.1-8.6v8m-2.6-6.4v8m-2.9-9v8m-4.9-6.1v8m-3-7.5v7.9m-2-8.7v8m-2.3-6.4v7.9m-4.3-8.5v8m-63.8 1.2v8m-2.5-6.4v7.9m-5.3-7v8m-3.1-8.4v8m-2.3-6.1v8m-2.9-8.4v8m-2.4-6.7v8" stroke="#202124" stroke-miterlimit="10"/><path d="M538.5 127.9l-1.5 6.4 3.3.3-1.8-6.7zm26-1.9l-1.5 6h3.4l-1.9-6zm24.1-3.2l-1.3 6.8 3.2-.3-1.9-6.5zM483.8 139l-.7-4.7-.7 6 1.4-1.3zm-5.4 1l-1.7-5-1.3 6.7-2 .2-1-4.4-1.1 5.3h-2.4l-.8-6.8-.7 7.3h-2l-1.5-4-.6 4-3 .4-1.2-3.7-.5 4-10.7 1-1-4.6-1 5h-3l-1.1-5-1.2 5.7-2.3-.6-1-4.3-.8 4.9h-3.8l-1.4-4.2-1.3 4.8-1.6-3.2-.5 3.2.7 2H459l20.7-4-1.4-4.7z" fill="#202124"/><path d="M76.3 167.4V25.8m0 45.7L62.8 58m13.5 43.2L96 81.5M76.3 136l-22.7-22.8m69.5-41.7v82.8m0-45.6l8.8-8.8m-8.8 36.1l-8.8-8.8m51-54.8v93.2m9.9-74.4l-10 10m.1 41.6L144.6 122m660.9-2.5V182m9.4-47.2l-8.7 8.6m-13.8 13.3l13.1 13.1m37-86.2v79.7m8.3-60.7l-7.8 7.8m-11.8 24.4l11.3 11.2m39-105.5V146m5.9-70.4l-5.9 5.9m-10.4 34.3l10.4 10.4M908.2 89v64.9m10.2-49.8l-10.2 10.2M898 129.1l10.2 10.2m42.3-85.4v82.2m10-56.8l-9.8 9.8m-11.8 9.5l11.6 11.6" stroke="#5F6368" stroke-linecap="round" stroke-linejoin="round"/><path d="M268.3 156.8a1.6 1.6 0 100-3.1 1.6 1.6 0 000 3z" fill="#202124"/><path d="M254.1 174.1s4.4-12.8 14.2-18.9m-6.7 5.8l-1-4.6m-2.6 9.8h4.4m33.1 21.1s.8-10.7 6-16.9" stroke="#202124" stroke-miterlimit="10"/><path d="M269.2 171.3a1.6 1.6 0 100-3.1 1.6 1.6 0 000 3zm32.3.8a1.6 1.6 0 100-3.1 1.6 1.6 0 000 3.1z" fill="#202124"/><path d="M269.5 171s2.7 8.6 1.9 13.7m26.9-8.9l-2.3-4.9m.8 9.5l3.8-1m-33-4l3.2.7m-.3-2.5l2-2" stroke="#202124" stroke-miterlimit="10"/><path d="M473.3 25.5l-1.4.3a1 1 0 00-.6 1.3l4.3 8.5 8-2-9-7.8a1.4 1.4 0 00-1.3-.3z" fill="#80868B"/><path d="M475.6 35.6l-4.3-8.5a1 1 0 010-.8 1 1 0 01.6-.5h.3l4.7 9.5-1.3.3z" fill="#5F6368"/><path d="M463.3 38.2l28.5-7a2.3 2.3 0 111.1 4.5l-28.4 7-1.2-4.5z" fill="#5F6368"/><path d="M463.8 34.4a1.4 1.4 0 00-1 1.7l1 4.4 4.9-1.2-3.5-4.4a1.3 1.3 0 00-1.4-.5z" fill="#5F6368"/><path d="M464.5 42.9l28.5-7.1a2.3 2.3 0 001.8-2.3L464 41.1l.4 1.8z" fill="#80868B"/><path d="M478.8 50l-1.4.3a1 1 0 01-1.1-.8L476 40l8.1-2-4.4 11.2a1.4 1.4 0 01-.9.8z" fill="#80868B"/><path d="M476 40l.3 9.5a1 1 0 00.3.7 1 1 0 00.8.1h.3l-.3-10.6-1.4.3z" fill="#5F6368"/><path d="M706.8 169.5h48.4" stroke="#202124" stroke-linecap="round" stroke-linejoin="round"/><path d="M731.4 142a7 7 0 01-.2-4" stroke="#F4AFB6" stroke-width="2" stroke-miterlimit="10" stroke-linecap="round"/><path d="M732.2 140.8c.2 1.4 1 2.7 2 3.6a4.7 4.7 0 003.8 1l.5 3.2a8 8 0 01-6.3-1.7 8.9 8.9 0 01-3.2-6" fill="#56A55C"/><path d="M740.8 143.8h-3.3v2.6h3.3v-2.6z" fill="#F4AFB6"/><path d="M739.8 145a3.5 3.5 0 100-7 3.5 3.5 0 000 7z" fill="#EE675C"/><path d="M739 145.5h1.6a3.4 3.4 0 012.8 2.7l-.2 8.2h-10.4l1-11" fill="#56A55C"/><path d="M734 156.4l-3 13.6h4.2l3-9.4.6 9.4h4.2l.3-13.6H734z" fill="#343659"/><path d="M713.8 108.7H709v7.2h4.8v-7.2zm9.4 14.4c4 3.4 7.1 7.4 9.5 12 0 0 1 2-.3 3.3 0 0-1.4 1.3-2.4 0s.2-3 .2-3-2.7-3.8-9-8.9l2-3.4z" fill="#F4AFB6"/><path d="M717.1 110.8l5 1.5a5 5 0 006.8-2.8c12.3 3.8 13.1-5.3 13.1-5.3-2.5 4-6.8 1.7-12.2 0-5.3-1.7-5.8 1.8-5.8 1.8-1.9-.5-3.6-1.4-5-2.6-1.6-1.4-3.2-3-5.3-3.8a6 6 0 00-6.2 1.4 5.8 5.8 0 00-1.5 5 7.4 7.4 0 003 5c3.6 2.6 8.1-.2 8.1-.2z" fill="#EE675C"/><path d="M718.6 144.5c1.9 9 5.2 17.6 9.9 25.5h-8.1a52.4 52.4 0 01-8.9-15.9s1.7 13.5 2.5 15.9h-7.3c-5-11.4-6-24.2-3.1-36.3h14.3v1.1a41 41 0 00.8 9.7z" fill="#F9AB00"/><path d="M717.9 136.5h-19.4l4-18.4-5.9-5.8 4.4-4.4 6.2 5.2s10.2 2.1 16 10a23.3 23.3 0 01-4.8 6.7l-.5 6.7z" fill="#4285F4"/><path d="M718.5 113.3h-11.2c-1 0-2 .8-2 1.8v16c0 1 .8 1.8 1.8 1.8l11.2.1c1 0 2-.8 2-1.8v-16c0-1-.8-1.9-1.8-1.9z" fill="#4B4D75"/><path d="M710.8 133H707a1.9 1.9 0 01-1.9-2l.2-15.9a1.9 1.9 0 011.9-1.9h1.6a1.9 1.9 0 011.8 1.2V133z" fill="#343757"/><path d="M701 107.9l-18.7-17.3a.6.6 0 00-.8 0 .6.6 0 00-.1.8l2 2.4v.6c0 .7.2 1.4.7 2L698 111l3.1-3.1z" fill="#F4AFB6"/><path d="M712.7 170a74.5 74.5 0 01-2-27.1l1.2.2a68 68 0 002 26.9h-1.2z" fill="#F29900"/><path d="M709.9 137.6a3.4 3.4 0 010-6.8h10.6a3.4 3.4 0 110 6.8h-10.6z" fill="#EA4335"/><path d="M709.9 137.6a3.4 3.4 0 100-6.8 3.4 3.4 0 000 6.8z" fill="#C5221F"/><path d="M715 113.3h5a1.9 1.9 0 012 1.9l-.1 5.5a1.9 1.9 0 01-1.9 1.8h-5" fill="#4B4D75"/><path d="M720.3 123.1h-7a3 3 0 01-3.1-3v-4.2" stroke="#343757" stroke-width="1.2" stroke-miterlimit="10"/><path d="M709.9 136a1.7 1.7 0 100-3.5 1.7 1.7 0 000 3.4z" fill="#DA5040"/><path d="M717 122.5h-2.4v3.6h2.4v-3.6z" fill="#343757"/><path d="M741.8 154.5h-4a1 1 0 01-.8-.3 1 1 0 01-.4-.8v-5.2a3.1 3.1 0 013.1-3.1h1.9l1.3 8.3a1 1 0 01-1.1 1.1z" fill="#1967D2"/><path d="M741.5 145a3.1 3.1 0 013.1 3.2v5.2a1 1 0 01-1 1.1h-4.1a1 1 0 01-.8-.3 1 1 0 01-.3-.8v-5.2a3.1 3.1 0 013.1-3.1z" fill="#4285F4"/><path d="M739.5 150v-1.8a2 2 0 014 0v1.7" stroke="#265BB6" stroke-miterlimit="10"/><path d="M742.2 146.3a1.8 1.8 0 100-3.6 1.8 1.8 0 000 3.6z" fill="#EE675C"/><path d="M763.8 169.3a1.3 1.3 0 100-2.6 1.3 1.3 0 000 2.6z" fill="#202124"/><path d="M755.2 184s0-8.5 8.6-16m-5.5 6.3l3.9-1.2m-5.2 3.8l-1.9-3" stroke="#202124" stroke-miterlimit="10"/></svg>